<?xml version="1.0" encoding="utf-8"?>
<!-- Generator: Adobe Illustrator 20.0.0, SVG Export Plug-In . SVG Version: 6.00 Build 0)  -->
<svg version="1.1" id="countryflags.com" xmlns="http://www.w3.org/2000/svg" xmlns:xlink="http://www.w3.org/1999/xlink" x="0px"
	 y="0px" viewBox="300 200 300 200" enable-background="new 300 200 300 200" xml:space="preserve">
<g>
	<rect id="_x37_" x="300" y="200" fill="#FFFFFF" width="300" height="200"/>
	<rect id="_x36_" x="300" y="280" fill="#FF0000" width="300" height="40"/>
	<rect id="_x35_" x="430" y="200" fill="#FF0000" width="40" height="200"/>
	<path id="_x34_" fill="#FF0000" d="M385,233.144c0,0-7.257,1.025-14.843,1.409c0.519-7.08,1.699-14.553,1.699-14.553h-13.711
		c0,0,0.998,7.071,1.393,14.55c-7.632-0.387-14.538-1.405-14.538-1.405v13.711c0,0,7.152-1.279,14.568-1.76
		c-0.372,7.777-1.423,14.904-1.423,14.904h13.711c0,0-1.315-7.348-1.78-14.87c7.187,0.505,14.925,1.725,14.925,1.725V233.144z"/>
	<path id="_x33_" fill="#FF0000" d="M385,353.144c0,0-7.257,1.025-14.843,1.409c0.519-7.08,1.699-14.553,1.699-14.553h-13.711
		c0,0,0.998,7.071,1.393,14.55c-7.632-0.387-14.538-1.405-14.538-1.405v13.711c0,0,7.152-1.279,14.568-1.76
		c-0.372,7.777-1.423,14.905-1.423,14.905h13.711c0,0-1.315-7.348-1.78-14.87c7.187,0.505,14.925,1.725,14.925,1.725V353.144z"/>
	<path id="_x32_" fill="#FF0000" d="M555,233.144c0,0-7.257,1.025-14.843,1.409c0.52-7.08,1.699-14.553,1.699-14.553h-13.711
		c0,0,0.998,7.071,1.393,14.55c-7.633-0.387-14.538-1.405-14.538-1.405v13.711c0,0,7.152-1.279,14.568-1.76
		c-0.372,7.777-1.423,14.905-1.423,14.905h13.711c0,0-1.315-7.348-1.78-14.87c7.187,0.505,14.924,1.725,14.924,1.725V233.144z"/>
	<path id="_x31_" fill="#FF0000" d="M555,353.144c0,0-7.257,1.025-14.843,1.409c0.52-7.08,1.699-14.553,1.699-14.553h-13.711
		c0,0,0.998,7.071,1.393,14.55c-7.633-0.387-14.538-1.405-14.538-1.405v13.711c0,0,7.153-1.279,14.568-1.76
		c-0.372,7.777-1.423,14.905-1.423,14.905h13.711c0,0-1.315-7.348-1.78-14.87c7.187,0.505,14.924,1.726,14.924,1.726V353.144z"/>
</g>
</svg>
