<?xml version="1.0" encoding="utf-8"?>
<!-- Generator: Adobe Illustrator 21.0.2, SVG Export Plug-In . SVG Version: 6.00 Build 0)  -->
<svg version="1.1" id="Countryflags.com" xmlns="http://www.w3.org/2000/svg" xmlns:xlink="http://www.w3.org/1999/xlink" x="0px"
	 y="0px" viewBox="-5.5 596.5 300 200" enable-background="new -5.5 596.5 300 200" xml:space="preserve">
<g>
	<g id="_x32_52">
		<defs>
			<rect id="_x32_53" x="-5.5" y="596.5" width="300" height="200"/>
		</defs>
		<clipPath id="_x32_53_1_">
			<use xlink:href="#_x32_53"  overflow="visible"/>
		</clipPath>
		<rect id="_x32_54" x="114.5" y="596.5" clip-path="url(#_x32_53_1_)" fill="#FF0000" width="180" height="200"/>
	</g>
	<rect id="_x32_51" x="-5.5" y="596.5" fill="#006600" width="120" height="200"/>
	<path id="_x32_50" fill-rule="evenodd" clip-rule="evenodd" fill="#FFFF00" d="M153.621,727.521
		c-15.105-0.457-84.37-43.691-84.846-50.576l3.826-6.377c6.87,9.982,77.678,52.029,84.634,50.539l-3.616,6.411"/>
	<path id="_x32_49" fill-rule="evenodd" clip-rule="evenodd" fill="#FFFF00" d="M71.795,669.701
		c-1.355,3.645,18.076,15.659,41.452,29.876c23.376,14.219,43.531,23.003,45.024,21.743c0.093-0.161,0.735-1.269,0.676-1.26
		c-0.281,0.422-0.962,0.554-2.024,0.247c-6.316-1.821-22.788-9.38-43.189-21.753c-20.397-12.371-38.147-23.769-40.906-28.616
		c-0.191-0.334-0.327-0.948-0.3-1.423h-0.069l-0.586,1.025L71.795,669.701z M153.975,727.716c-0.256,0.464-0.735,0.481-1.641,0.381
		c-5.652-0.628-22.795-8.962-43.081-21.109c-23.606-14.131-43.103-27.004-40.984-30.371l0.576-1.018l0.112,0.036
		c-1.902,5.701,38.474,28.787,40.852,30.261c23.362,14.473,43.057,22.925,44.8,20.728L153.975,727.716"/>
	<path id="_x32_48" fill="none" stroke="#000000" stroke-width="0.2865" stroke-linecap="round" stroke-linejoin="round" d="
		M71.795,669.701c-1.355,3.645,18.074,15.659,41.452,29.876c23.374,14.219,43.531,23.003,45.024,21.743
		c0.093-0.161,0.735-1.269,0.676-1.26c-0.278,0.42-0.962,0.554-2.024,0.247c-6.316-1.821-22.788-9.383-43.189-21.753
		c-20.397-12.371-38.147-23.772-40.906-28.616c-0.191-0.334-0.327-0.948-0.3-1.423l-0.066-0.003l-0.588,1.028L71.795,669.701z
		 M153.975,727.721c-0.256,0.464-0.735,0.479-1.641,0.381c-5.649-0.628-22.795-8.963-43.081-21.109
		c-23.606-14.128-43.1-27.004-40.986-30.369l0.576-1.018l0.115,0.037c-1.902,5.701,38.474,28.789,40.849,30.259
		c23.362,14.475,43.057,22.927,44.8,20.73l-0.633,1.091V727.721z"/>
	<path id="_x32_47" fill-rule="evenodd" clip-rule="evenodd" fill="#FFFF00" d="M114.586,681.114
		c15.117-0.12,33.774-2.066,44.511-6.346l-2.314-3.757c-6.345,3.513-25.105,5.823-42.326,6.167
		c-20.366-0.188-34.744-2.082-41.948-6.916l-2.183,4.001C83.568,679.867,97.137,681.058,114.586,681.114"/>
	<path id="_x32_46" fill-rule="evenodd" clip-rule="evenodd" fill="#FFFF00" d="M159.72,674.854
		c-0.369,0.591-7.371,3.006-17.686,4.787c-6.995,1.067-16.118,1.978-27.502,1.988c-10.818,0.012-19.654-0.759-26.343-1.665
		c-10.827-1.699-16.416-4.06-18.484-4.895c0.198-0.393,0.325-0.669,0.515-1.035c5.947,2.368,11.562,3.796,18.14,4.809
		c6.646,0.898,15.376,1.679,26.138,1.67c11.333-0.013,20.356-0.991,27.309-2.026c10.576-1.707,16.355-3.904,17.166-4.922
		L159.72,674.854z M157.689,671.044c-1.145,0.92-6.858,2.946-16.909,4.551c-6.707,0.962-15.237,1.824-26.133,1.833
		c-10.351,0.01-18.808-0.688-25.241-1.626c-10.207-1.331-15.64-3.736-17.6-4.439c0.195-0.337,0.393-0.671,0.598-1.006
		c1.523,0.766,6.768,2.896,17.114,4.36c6.36,0.901,14.829,1.575,25.129,1.562c10.845-0.009,19.277-0.886,25.943-1.843
		c10.103-1.389,15.538-3.972,16.365-4.621L157.689,671.044"/>
	<path id="_x32_45" fill="none" stroke="#000000" stroke-width="0.2866" stroke-linecap="round" stroke-linejoin="round" d="
		M159.72,674.854c-0.369,0.591-7.371,3.006-17.686,4.787c-6.995,1.067-16.118,1.978-27.502,1.99
		c-10.818,0.01-19.654-0.759-26.343-1.667c-10.827-1.697-16.416-4.06-18.481-4.895c0.197-0.393,0.325-0.666,0.515-1.035
		c5.947,2.368,11.563,3.796,18.14,4.809c6.646,0.899,15.373,1.68,26.138,1.67c11.331-0.013,20.354-0.991,27.307-2.026
		c10.579-1.707,16.355-3.901,17.168-4.922l0.747,1.289H159.72z M157.691,671.044c-1.147,0.92-6.86,2.946-16.911,4.551
		c-6.707,0.962-15.234,1.824-26.131,1.833c-10.354,0.01-18.811-0.688-25.244-1.623c-10.207-1.333-15.64-3.738-17.598-4.441
		c0.196-0.337,0.393-0.669,0.598-1.006c1.524,0.766,6.766,2.896,17.112,4.36c6.36,0.904,14.832,1.575,25.132,1.565
		c10.845-0.012,19.275-0.889,25.94-1.846c10.103-1.389,15.539-3.972,16.365-4.619L157.691,671.044z"/>
	<path id="_x32_44" fill-rule="evenodd" clip-rule="evenodd" fill="#FFFF00" d="M64.94,699.329
		c9.299,5.003,29.954,7.522,49.497,7.696c17.796,0.029,40.979-2.749,49.649-7.344l-0.237-5.007
		c-2.712,4.238-27.559,8.306-49.604,8.14c-22.046-0.166-42.519-3.572-49.343-7.981L64.94,699.329"/>
	<path id="_x32_43" fill-rule="evenodd" clip-rule="evenodd" fill="#FFFF00" d="M164.561,698.609v1.196
		c-1.304,1.555-9.473,3.911-19.719,5.569c-7.798,1.196-17.964,2.097-30.63,2.097c-12.036,0-21.631-0.857-29.074-2
		c-11.763-1.714-19.29-4.714-20.801-5.607l0.008-1.392c4.539,3.015,16.831,5.223,20.959,5.896
		c7.392,1.137,16.934,1.987,28.909,1.987c12.607,0,22.717-0.896,30.464-2.083c7.351-1.062,17.822-3.823,19.886-5.661V698.609z
		 M164.566,694.364v1.194c-1.303,1.557-9.473,3.914-19.719,5.571c-7.798,1.196-17.964,2.098-30.63,2.098
		c-12.034,0-21.631-0.857-29.075-2.002c-11.762-1.712-19.289-4.712-20.801-5.608l0.008-1.392c4.539,3.018,16.831,5.225,20.959,5.899
		c7.393,1.135,16.934,1.987,28.909,1.987c12.607,0,22.715-0.896,30.464-2.085C152.032,698.963,162.503,696.202,164.566,694.364"/>
	<path id="_x32_42" fill="none" stroke="#000000" stroke-width="0.2864" stroke-linecap="round" stroke-linejoin="round" d="
		M164.561,698.609v1.194c-1.304,1.557-9.473,3.914-19.719,5.571c-7.798,1.196-17.964,2.097-30.63,2.097
		c-12.036,0-21.633-0.857-29.074-2c-11.766-1.714-19.29-4.714-20.801-5.61l0.008-1.392c4.536,3.018,16.831,5.225,20.959,5.899
		c7.392,1.135,16.934,1.987,28.906,1.987c12.61,0,22.717-0.896,30.466-2.083c7.351-1.062,17.822-3.824,19.883-5.662h0.002V698.609z
		 M164.566,694.364v1.194c-1.303,1.557-9.473,3.911-19.719,5.569c-7.798,1.196-17.964,2.098-30.63,2.098
		c-12.036,0-21.633-0.857-29.075-1.999c-11.765-1.712-19.289-4.712-20.801-5.608l0.008-1.392c4.536,3.016,16.831,5.222,20.959,5.896
		c7.393,1.138,16.934,1.99,28.906,1.99c12.61,0,22.717-0.896,30.466-2.085c7.351-1.062,17.822-3.824,19.883-5.662H164.566z"/>
	<path id="_x32_41" fill-rule="evenodd" clip-rule="evenodd" fill="#FFFF00" d="M114.395,726.661
		c-21.387-0.129-39.709-5.83-43.579-6.773l2.82,4.416c6.836,2.876,24.712,7.161,40.964,6.685
		c16.253-0.474,30.454-1.731,40.464-6.604l2.893-4.578C151.136,723.021,127.923,726.627,114.395,726.661"/>
	<path id="_x32_40" fill-rule="evenodd" clip-rule="evenodd" fill="#FFFF00" d="M156.151,723.361
		c-0.425,0.649-0.859,1.289-1.299,1.914c-4.722,1.665-12.161,3.411-15.298,3.921c-6.411,1.324-16.333,2.297-25.137,2.302
		c-18.945-0.276-34.453-3.987-41.748-7.151l-0.588-1.011l0.095-0.151l0.999,0.386c12.974,4.641,27.546,6.492,41.348,6.826
		c8.769,0.032,17.549-1.006,24.646-2.275c10.886-2.181,15.288-3.823,16.638-4.571l0.344-0.193V723.361z M158.658,719.222
		c0.012,0.013,0.022,0.025,0.034,0.039c-0.32,0.534-0.647,1.081-0.981,1.631c-2.52,0.901-9.353,2.901-19.331,4.294
		c-6.574,0.896-10.659,1.763-23.737,2.017c-24.509-0.622-40.376-5.415-44.146-6.597l-0.559-1.072
		c14.204,3.709,28.711,6.297,44.705,6.561c11.965-0.254,17.056-1.136,23.574-2.024c11.636-1.809,17.497-3.726,19.258-4.277
		c-0.022-0.032-0.049-0.066-0.076-0.101L158.658,719.222"/>
	<path id="_x32_39" fill="none" stroke="#000000" stroke-width="0.2749" stroke-linecap="round" stroke-linejoin="round" d="
		M156.151,723.361c-0.425,0.649-0.859,1.291-1.299,1.914c-4.722,1.665-12.159,3.413-15.298,3.923
		c-6.414,1.321-16.333,2.295-25.137,2.3c-18.945-0.276-34.453-3.984-41.748-7.148l-0.588-1.013l0.095-0.152l0.999,0.388
		c12.974,4.641,27.546,6.492,41.348,6.824c8.769,0.032,17.549-1.003,24.646-2.272c10.886-2.183,15.288-3.826,16.638-4.571
		L156.151,723.361z M158.658,719.222c0.012,0.013,0.022,0.025,0.034,0.039c-0.317,0.537-0.647,1.081-0.981,1.631
		c-2.517,0.901-9.351,2.901-19.329,4.294c-6.575,0.896-10.662,1.763-23.74,2.017c-24.507-0.622-40.376-5.415-44.146-6.597
		l-0.559-1.072c14.204,3.709,28.711,6.297,44.705,6.561c11.965-0.254,17.056-1.136,23.576-2.024
		c11.636-1.809,17.498-3.726,19.258-4.277c-0.022-0.032-0.049-0.066-0.078-0.101l1.262-0.471H158.658z"/>
	<path id="_x32_38" fill-rule="evenodd" clip-rule="evenodd" fill="#FFFF00" d="M158.915,695.379
		c0.071,14.07-7.129,26.694-12.927,32.263c-8.206,7.879-19.082,12.947-31.785,13.181c-14.184,0.261-27.561-8.987-31.147-13.049
		c-7.014-7.942-12.725-18.027-12.908-31.621c0.869-15.354,6.897-26.049,15.632-33.384c8.737-7.336,20.374-10.908,30.061-10.652
		c11.179,0.296,24.238,5.779,33.261,16.665C155.013,675.916,157.574,683.658,158.915,695.379L158.915,695.379z M114.322,647.208
		c27.244,0,49.648,22.17,49.648,49.353c0,27.183-22.404,49.351-49.648,49.351c-27.241,0-49.463-22.168-49.463-49.351
		C64.859,669.378,87.081,647.208,114.322,647.208"/>
	<path id="_x32_37" fill="none" stroke="#000000" stroke-width="0.2864" stroke-linecap="round" stroke-linejoin="round" d="
		M114.456,647.039c27.266,0,49.504,22.241,49.504,49.512c0,27.268-22.239,49.509-49.504,49.509
		c-27.268,0-49.507-22.241-49.507-49.509C64.95,669.281,87.188,647.039,114.456,647.039L114.456,647.039z M114.456,648.128
		c26.548,0,48.416,21.792,48.416,48.423c0,26.631-21.868,48.421-48.416,48.421c-26.548,0-48.418-21.79-48.418-48.421
		C66.038,669.921,87.908,648.128,114.456,648.128L114.456,648.128z M114.495,651.156c24.866,0,45.347,20.41,45.347,45.352
		c0,24.941-20.481,45.351-45.347,45.351c-24.866,0-45.346-20.41-45.346-45.351C69.149,671.566,89.63,651.156,114.495,651.156
		L114.495,651.156z M114.495,652.244c24.268,0,44.258,19.92,44.258,44.263c0,24.341-19.991,44.26-44.258,44.26
		s-44.258-19.919-44.258-44.26C70.238,672.164,90.228,652.244,114.495,652.244L114.495,652.244z"/>
	<polygon id="_x32_36" fill-rule="evenodd" clip-rule="evenodd" fill="#FFFF00" points="116.06,646.266 116.06,646.812 
		112.935,646.812 112.935,646.28 111.856,646.28 111.856,746.891 112.935,746.891 112.935,746.422 116.075,746.422 116.075,746.907 
		117.154,746.907 117.14,646.266 	"/>
	<path id="_x32_35" fill="none" stroke="#000000" stroke-width="0.2864" stroke-linecap="round" stroke-linejoin="round" d="
		M113.011,646.839h3.008 M113.016,746.319h3.023"/>
	<path id="_x32_34" fill="none" stroke="#000000" stroke-width="0.2865" stroke-linecap="round" stroke-linejoin="round" d="
		M116.065,646.273h1.079l0.01,100.625h-1.081L116.065,646.273z M111.854,646.273h1.089l0.002,100.625h-1.089V646.273H111.854z"/>
	<path id="_x32_33" fill-rule="evenodd" clip-rule="evenodd" fill="#FFFF00" d="M64.771,694.439
		c6.206-5.715,29.111-9.421,49.436-9.324c20.322,0.095,44.39,4.27,49.624,9.202l0.054,4.263c-4.385-4.124-23.084-9.043-49.639-9.097
		c-26.556-0.056-45.835,4.998-49.478,9.209L64.771,694.439"/>
	<path id="_x32_32" fill="none" stroke="#000000" stroke-width="0.2862" stroke-linecap="round" stroke-linejoin="round" d="
		M64.759,694.639v3.679 M163.995,694.791v3.676"/>
	<path id="_x32_31" fill-rule="evenodd" clip-rule="evenodd" fill="#FFFF00" d="M114.476,688.885
		c11.692-0.022,23.034,1.109,32.031,2.859c9.284,1.857,15.82,4.179,18.052,6.787l-0.003,1.289
		c-2.693-3.242-11.487-5.622-18.259-6.982c-8.928-1.739-20.195-2.859-31.821-2.837c-12.271,0.022-23.694,1.186-32.492,2.9
		c-7.061,1.401-16.478,4.187-17.652,6.931v-1.345c0.645-1.899,7.656-4.741,17.493-6.709
		C90.686,690.05,102.135,688.909,114.476,688.885L114.476,688.885z M114.481,684.639c11.692-0.022,23.034,1.109,32.031,2.859
		c9.284,1.858,15.82,4.179,18.052,6.787l-0.003,1.289c-2.693-3.245-11.484-5.623-18.257-6.983
		c-8.931-1.739-20.198-2.859-31.824-2.837c-12.271,0.022-23.64,1.184-32.439,2.9c-6.811,1.292-16.614,4.185-17.705,6.929v-1.342
		c0.645-1.88,7.798-4.822,17.493-6.709C90.694,685.804,102.14,684.662,114.481,684.639"/>
	<path id="_x32_30" fill="none" stroke="#000000" stroke-width="0.2864" stroke-linecap="round" stroke-linejoin="round" d="
		M114.476,688.885c11.692-0.022,23.034,1.109,32.031,2.859c9.284,1.855,15.82,4.177,18.054,6.787l-0.002,1.289
		c-2.696-3.245-11.487-5.623-18.259-6.982c-8.931-1.739-20.197-2.859-31.824-2.837c-12.271,0.022-23.694,1.184-32.492,2.9
		c-7.061,1.401-16.475,4.185-17.652,6.929v-1.343c0.647-1.902,7.656-4.741,17.493-6.709
		C90.689,690.05,102.135,688.907,114.476,688.885L114.476,688.885z M114.481,684.639c11.692-0.022,23.034,1.109,32.031,2.859
		c9.284,1.858,15.82,4.177,18.054,6.784l-0.002,1.292c-2.696-3.245-11.487-5.623-18.259-6.982
		c-8.931-1.739-20.198-2.859-31.824-2.837c-12.271,0.022-23.638,1.184-32.439,2.9c-6.811,1.292-16.611,4.185-17.705,6.931v-1.345
		c0.645-1.88,7.798-4.822,17.493-6.709C90.694,685.804,102.14,684.662,114.481,684.639L114.481,684.639z"/>
	<path id="_x32_29" fill-rule="evenodd" clip-rule="evenodd" fill="#FFFF00" d="M114.241,662.979
		c18.423-0.093,34.494,2.576,41.846,6.343l2.683,4.638c-6.392-3.442-23.728-7.024-44.502-6.489
		c-16.929,0.105-35.015,1.865-44.089,6.706l3.203-5.354c7.446-3.862,25.01-5.823,40.859-5.842"/>
	
		<line id="_x32_28" fill="none" stroke="#000000" stroke-width="0.287" stroke-linecap="round" stroke-linejoin="round" x1="156.556" y1="670.074" x2="158.38" y2="673.006"/>
	<path id="_x32_27" fill-rule="evenodd" clip-rule="evenodd" fill="#FFFF00" d="M114.486,666.81
		c10.508-0.029,20.661,0.564,28.738,2.021c7.522,1.399,14.692,3.501,15.717,4.632l0.796,1.404c-2.495-1.629-8.701-3.44-16.67-4.951
		c-8.006-1.504-18.152-2.002-28.601-1.975c-11.86-0.042-21.076,0.583-28.984,1.963c-8.364,1.565-14.168,3.801-15.598,4.864
		l0.779-1.484c2.781-1.419,7.195-3.13,14.612-4.466C93.453,667.323,102.765,666.874,114.486,666.81L114.486,666.81z
		 M114.481,662.569c10.056-0.027,19.985,0.532,27.727,1.924c6.104,1.189,12.141,3.044,14.351,4.695l1.162,1.848
		c-1.975-2.198-9.416-4.28-15.986-5.447c-7.681-1.323-17.197-1.848-27.253-1.931c-10.554,0.027-20.308,0.674-27.876,2.053
		c-7.221,1.374-11.88,3.001-13.853,4.27l1.023-1.543c2.719-1.433,7.117-2.747,12.651-3.824
		C94.051,663.229,103.865,662.596,114.481,662.569"/>
	<path id="_x32_26" fill="none" stroke="#000000" stroke-width="0.2866" stroke-linecap="round" stroke-linejoin="round" d="
		M114.486,666.81c10.508-0.027,20.661,0.564,28.738,2.021c7.519,1.399,14.692,3.501,15.717,4.632l0.796,1.404
		c-2.495-1.629-8.701-3.443-16.67-4.954c-8.003-1.504-18.149-2.002-28.601-1.975c-11.86-0.039-21.074,0.586-28.984,1.965
		c-8.364,1.565-14.168,3.801-15.598,4.864l0.779-1.484c2.784-1.421,7.195-3.13,14.612-4.466
		C93.453,667.323,102.767,666.874,114.486,666.81L114.486,666.81z M114.481,662.567c10.056-0.024,19.985,0.535,27.727,1.926
		c6.104,1.189,12.141,3.044,14.351,4.695l1.162,1.848c-1.975-2.198-9.416-4.28-15.986-5.447c-7.681-1.326-17.197-1.848-27.253-1.934
		c-10.554,0.029-20.308,0.676-27.876,2.056c-7.221,1.375-11.88,3.001-13.853,4.27l1.023-1.542c2.722-1.433,7.117-2.747,12.651-3.824
		C94.051,663.226,103.865,662.596,114.481,662.567L114.481,662.567z"/>
	<path id="_x32_25" fill-rule="evenodd" clip-rule="evenodd" fill="#FFFF00" d="M139.075,717.13
		c-9.109-1.699-18.234-1.948-24.609-1.873c-30.703,0.361-40.62,6.304-41.831,8.105l-2.295-3.74
		c7.817-5.666,24.536-8.845,44.292-8.521c10.259,0.169,19.114,0.85,26.56,2.292L139.075,717.13"/>
	
		<line id="_x32_24" fill="none" stroke="#000000" stroke-width="0.2864" stroke-linecap="round" stroke-linejoin="round" x1="70.85" y1="720.14" x2="72.356" y2="722.733"/>
	<path id="_x32_23" fill-rule="evenodd" clip-rule="evenodd" fill="#FFFF00" d="M114.29,714.73c8.54,0.127,16.924,0.481,25.017,1.99
		l-0.586,1.035c-7.517-1.389-15.528-1.919-24.402-1.878c-11.331-0.088-22.793,0.972-32.771,3.836
		c-3.149,0.874-8.359,2.9-8.891,4.572l-0.584-0.962c0.169-0.989,3.318-3.039,9.207-4.695
		C92.708,715.355,103.399,714.803,114.29,714.73L114.29,714.73z M114.678,710.431c8.847,0.166,17.986,0.576,26.87,2.336l-0.61,1.077
		c-8.02-1.592-15.686-2.124-26.209-2.285c-11.367,0.019-23.425,0.83-34.387,4.018c-3.54,1.031-9.649,3.259-9.854,5.024l-0.584-1.033
		c0.134-1.604,5.423-3.694,10.181-5.078C91.133,711.278,103.223,710.453,114.678,710.431"/>
	<path id="_x32_22" fill="none" stroke="#000000" stroke-width="0.2749" stroke-linecap="round" stroke-linejoin="round" d="
		M114.29,714.73c8.54,0.127,16.924,0.481,25.017,1.99l-0.586,1.035c-7.517-1.389-15.528-1.919-24.402-1.875
		c-11.333-0.091-22.793,0.969-32.771,3.833c-3.149,0.876-8.359,2.9-8.891,4.572l-0.584-0.962c0.169-0.989,3.318-3.039,9.207-4.695
		C92.711,715.355,103.399,714.803,114.29,714.73L114.29,714.73z M114.678,710.431c8.847,0.166,17.986,0.576,26.87,2.336l-0.61,1.077
		c-8.022-1.594-15.686-2.124-26.209-2.285c-11.367,0.019-23.425,0.83-34.389,4.018c-3.537,1.031-9.649,3.259-9.851,5.025
		l-0.584-1.033c0.134-1.604,5.423-3.694,10.181-5.078C91.133,711.278,103.223,710.453,114.678,710.431L114.678,710.431z"/>
	<path id="_x32_21" fill-rule="evenodd" clip-rule="evenodd" fill="#FFFF00" d="M72.95,668.761
		c15.209-0.198,85.454,42.925,85.659,50.864l-4.351,6.67c-1.965-9.219-73.239-51.184-85-50.391l3.689-7.144"/>
	<path id="_x32_20" fill="none" stroke="#000000" stroke-width="0.2865" stroke-linecap="round" stroke-linejoin="round" d="
		M158.29,720.189l-3.689,5.726 M72.835,669.134l-3.43,6.36"/>
	<path id="_x32_19" fill-rule="evenodd" clip-rule="evenodd" fill="#FFFF00" d="M68.826,675.651
		c2.823-1.914,23.569,7.326,45.276,20.415c21.651,13.128,42.339,27.961,40.471,30.737l-0.613,0.967l-0.283,0.222
		c0.061-0.044,0.371-0.422-0.029-1.453c-0.923-3.034-15.598-14.746-39.949-29.448c-23.738-14.155-43.521-22.686-45.498-20.246
		L68.826,675.651h-0.003H68.826z M159.046,720.113c1.785-3.525-17.458-18.022-41.316-32.136
		c-24.407-13.833-41.997-21.975-45.21-19.548l-0.715,1.299c-0.005,0.073,0.026-0.088,0.176-0.205
		c0.586-0.51,1.553-0.476,1.989-0.484c5.535,0.083,21.336,7.354,43.504,20.064c9.714,5.659,41.035,25.747,40.916,31.394
		c0.009,0.486,0.041,0.586-0.142,0.825l0.796-1.211"/>
	<path id="_x32_18" fill="none" stroke="#000000" stroke-width="0.2865" stroke-linecap="round" stroke-linejoin="round" d="
		M68.826,675.646c2.823-1.914,23.569,7.326,45.276,20.417c21.651,13.125,42.339,27.959,40.471,30.735l-0.613,0.966l-0.283,0.223
		c0.061-0.044,0.371-0.425-0.029-1.453c-0.923-3.035-15.598-14.746-39.949-29.448c-23.738-14.153-43.521-22.686-45.498-20.247
		L68.826,675.646h-0.003H68.826z M159.046,720.108c1.785-3.525-17.458-18.022-41.316-32.136
		c-24.407-13.833-41.997-21.975-45.21-19.548l-0.715,1.301c-0.005,0.071,0.026-0.09,0.178-0.205c0.583-0.51,1.553-0.476,1.989-0.483
		c5.532,0.083,21.333,7.353,43.501,20.063c9.714,5.657,41.038,25.745,40.918,31.394c0.007,0.486,0.039,0.586-0.144,0.827
		L159.046,720.108z"/>
	<path id="_x32_17" fill-rule="evenodd" clip-rule="evenodd" fill="#FFFFFF" d="M84.8,702.006c0,8.134,3.331,15.493,8.728,20.871
		c5.408,5.388,12.756,8.789,20.906,8.789c8.191,0,15.622-3.328,21.008-8.694c5.383-5.368,8.721-12.776,8.723-20.939h-0.003v-39.595
		l-59.37-0.071L84.8,702.006"/>
	<path id="_x32_16" fill="none" stroke="#000000" stroke-width="0.3352" d="M84.8,702.006c0,8.134,3.331,15.493,8.728,20.871
		c5.408,5.388,12.756,8.789,20.906,8.789c8.188,0,15.622-3.328,21.006-8.694c5.386-5.368,8.723-12.778,8.723-20.942v-39.592
		l-59.37-0.071L84.8,702.006z"/>
	<path id="_x32_15" fill-rule="evenodd" clip-rule="evenodd" fill="#FF0000" d="M85.911,702.059v0.024
		c0,7.778,3.22,14.861,8.386,20.002c5.178,5.154,12.307,8.357,20.107,8.357c7.839,0,14.956-3.181,20.109-8.313
		c5.156-5.132,8.35-12.217,8.35-20.022v-38.413l-56.921-0.01l-0.034,38.374 M131.419,675.186l0.002,24.444l-0.019,2.587
		c0,0.681-0.041,1.456-0.119,2.117c-0.464,3.865-2.241,7.231-4.873,9.854c-3.081,3.069-7.337,4.971-12.024,4.971
		c-4.663,0-8.818-1.97-11.914-5.051c-3.174-3.159-5.015-7.491-5.015-11.972l-0.007-27.012l33.972,0.061"/>
	<path id="_x32_14" fill="none" stroke="#000000" stroke-width="0.2537" d="M85.911,702.059v0.024c0,7.778,3.22,14.861,8.386,20.003
		c5.178,5.154,12.307,8.357,20.107,8.357c7.839,0,14.956-3.181,20.109-8.313c5.154-5.132,8.35-12.217,8.35-20.022v-38.413
		l-56.921-0.01l-0.034,38.374 M131.419,675.186l0.002,24.446l-0.019,2.585c0,0.681-0.041,1.456-0.119,2.117
		c-0.464,3.865-2.241,7.234-4.873,9.854c-3.081,3.069-7.337,4.971-12.024,4.971c-4.663,0-8.818-1.968-11.914-5.049
		c-3.176-3.162-5.015-7.495-5.015-11.975l-0.007-27.012l33.969,0.061l0.002,0.002H131.419z"/>
	<path id="_x32_13" fill="#003399" d="M110.818,697.704v0.003c0,1.106,0.425,2.114,1.106,2.844c0.681,0.732,1.621,1.189,2.651,1.189
		c1.032,0,1.97-0.452,2.651-1.182c0.679-0.73,1.101-1.738,1.101-2.847v-5.386l-7.497-0.005L110.818,697.704"/>
	<path id="_x32_12" fill="#003399" d="M110.782,710.594v0.003c0,1.106,0.424,2.114,1.106,2.846c0.681,0.733,1.621,1.187,2.652,1.187
		c1.033,0,1.97-0.452,2.651-1.182c0.679-0.73,1.101-1.736,1.101-2.847v-5.383l-7.497-0.008L110.782,710.594"/>
	<path id="_x32_11" fill="#003399" d="M100.418,697.728v0.003c0,1.106,0.424,2.114,1.106,2.844c0.684,0.734,1.624,1.189,2.651,1.189
		c1.033,0,1.973-0.452,2.652-1.182c0.679-0.73,1.101-1.736,1.101-2.846v-5.384l-7.495-0.007L100.418,697.728"/>
	<path id="_x32_10" fill="#003399" d="M121.19,697.723v0.002c0,1.106,0.425,2.114,1.106,2.844c0.683,0.734,1.623,1.189,2.651,1.189
		c1.035,0,1.973-0.452,2.651-1.182c0.679-0.73,1.101-1.736,1.101-2.846v-5.384l-7.495-0.007L121.19,697.723"/>
	<path id="_x32_09" fill="#003399" d="M110.816,684.696v0.003c0,1.106,0.425,2.112,1.106,2.844c0.681,0.732,1.621,1.189,2.649,1.189
		c1.036,0,1.973-0.451,2.651-1.184c0.681-0.727,1.101-1.736,1.101-2.847v-5.383l-7.495-0.005L110.816,684.696"/>
	<polyline id="_x32_08" fill-rule="evenodd" clip-rule="evenodd" fill="#FFFF00" points="95.274,667.279 95.34,669.019 
		93.277,669.019 93.336,667.281 95.274,667.281 	"/>
	<path id="_x32_07" fill-rule="evenodd" clip-rule="evenodd" fill="#FFFF00" d="M89.595,673.714
		c0.069-2.759,2.027-3.413,2.041-3.423c0.013-0.009,2.114,0.703,2.107,3.45L89.595,673.714"/>
	<path id="_x32_06" fill-rule="evenodd" clip-rule="evenodd" fill="#FFFF00" d="M87.906,670.341l-0.342,3.174l2.071,0.003
		c0.019-2.625,1.988-3.059,2.036-3.049c0.044-0.003,1.994,0.578,2.046,3.049h2.075l-0.376-3.196L87.906,670.341"/>
	<path id="_x32_05" fill="none" stroke="#000000" stroke-width="0.2497" d="M87.906,670.345l-0.342,3.172l2.071,0.004
		c0.019-2.624,1.988-3.061,2.034-3.051c0.046-0.003,1.994,0.581,2.048,3.051h2.075l-0.376-3.196L87.906,670.345z"/>
	<path id="_x32_04" fill-rule="evenodd" clip-rule="evenodd" fill="#FFFF00" d="M87.425,673.529h8.474
		c0.178,0,0.322,0.178,0.322,0.393c0,0.215-0.144,0.391-0.322,0.391h-8.474c-0.178,0-0.325-0.176-0.325-0.391
		C87.1,673.707,87.247,673.529,87.425,673.529"/>
	<path id="_x32_03" fill="none" stroke="#000000" stroke-width="0.2497" d="M87.425,673.529h8.474c0.178,0,0.325,0.178,0.325,0.393
		c0,0.215-0.147,0.391-0.325,0.391h-8.474c-0.178,0-0.325-0.176-0.325-0.391C87.1,673.707,87.247,673.529,87.425,673.529
		L87.425,673.529z"/>
	<path id="_x32_02" fill-rule="evenodd" clip-rule="evenodd" fill="#FFFF00" d="M90.506,673.514
		c0.007-1.656,1.131-2.124,1.136-2.124c0,0,1.172,0.484,1.181,2.124H90.506"/>
	<path id="_x32_01" fill="none" stroke="#000000" stroke-width="0.2485" d="M90.506,673.514c0.007-1.656,1.131-2.124,1.136-2.124
		c0,0,1.172,0.484,1.181,2.124H90.506"/>
	<path id="_x32_00" fill-rule="evenodd" clip-rule="evenodd" fill="#FFFF00" d="M87.606,669.029h8.122
		c0.171,0,0.31,0.159,0.31,0.354c0,0.193-0.139,0.352-0.31,0.352h-8.122c-0.171,0-0.312-0.159-0.312-0.352
		C87.293,669.188,87.435,669.029,87.606,669.029"/>
	<path id="_x31_99" fill="none" stroke="#000000" stroke-width="0.2495" d="M87.606,669.024h8.122c0.171,0,0.31,0.159,0.31,0.354
		c0,0.193-0.139,0.352-0.31,0.352h-8.122c-0.171,0-0.312-0.159-0.312-0.352C87.293,669.183,87.435,669.024,87.606,669.024
		L87.606,669.024z"/>
	<path id="_x31_98" fill-rule="evenodd" clip-rule="evenodd" fill="#FFFF00" d="M87.774,669.735h7.771
		c0.164,0,0.298,0.159,0.298,0.351c0,0.196-0.134,0.354-0.298,0.354h-7.771c-0.163,0-0.295-0.159-0.295-0.354
		C87.479,669.894,87.611,669.735,87.774,669.735"/>
	<path id="_x31_97" fill="none" stroke="#000000" stroke-width="0.2495" d="M87.774,669.735h7.771c0.164,0,0.298,0.159,0.298,0.351
		c0,0.196-0.134,0.354-0.298,0.354h-7.771c-0.163,0-0.295-0.159-0.295-0.354C87.479,669.894,87.611,669.735,87.774,669.735
		L87.774,669.735z"/>
	<path id="_x31_96" fill-rule="evenodd" clip-rule="evenodd" fill="#FFFF00" d="M90.316,664.439h0.598v0.437h0.439v-0.447
		l0.615,0.003v0.444h0.439v-0.447l0.616,0.003l-0.003,1.006c0,0.156-0.124,0.259-0.266,0.259h-2.161
		c-0.144,0-0.278-0.117-0.278-0.264V664.439"/>
	<path id="_x31_95" fill="none" stroke="#000000" stroke-width="0.2501" d="M90.286,664.439l0.613,0.003v0.434h0.447v-0.444h0.627
		v0.444h0.449v-0.444h0.63l-0.003,1.006c0,0.156-0.127,0.259-0.274,0.259h-2.204c-0.149,0-0.286-0.118-0.286-0.264l-0.003-0.994
		H90.286z"/>
	<polyline id="_x31_94" fill-rule="evenodd" clip-rule="evenodd" fill="#FFFF00" points="92.596,665.784 92.733,669.013 
		90.581,669.003 90.726,665.777 92.596,665.784 	"/>
	<polyline id="_x31_93" fill="none" stroke="#000000" stroke-width="0.2495" points="92.596,665.784 92.733,669.01 90.581,669.003 
		90.726,665.777 92.596,665.784 	"/>
	<path id="_x31_92" fill-rule="evenodd" clip-rule="evenodd" fill="#FFFF00" d="M92.955,666.019l0.601,0.003v0.435h0.437v-0.444
		l0.615,0.003v0.442h0.439v-0.444h0.615v1.006c0,0.159-0.124,0.261-0.268,0.261h-2.158c-0.147,0-0.281-0.119-0.281-0.264v-0.994"/>
	<polygon id="_x31_91" fill="none" stroke="#000000" stroke-width="0.2506" points="95.274,667.279 95.34,669.019 93.277,669.019 
		93.336,667.281 95.274,667.281 	"/>
	<path id="_x31_90" fill="none" stroke="#000000" stroke-width="0.2501" d="M92.955,666.014l0.601,0.003v0.434h0.437v-0.444
		l0.615,0.003v0.444h0.439v-0.447h0.615v1.006c0,0.156-0.124,0.259-0.268,0.259h-2.158c-0.144,0-0.281-0.117-0.281-0.261V666.014z"
		/>
	<path id="_x31_89" fill-rule="evenodd" clip-rule="evenodd" fill="#FFFF00" d="M87.65,666.019l0.601,0.003v0.435h0.439v-0.444
		l0.613,0.003v0.442h0.439v-0.444h0.615v1.006c0,0.159-0.124,0.261-0.269,0.261H87.93c-0.144,0-0.278-0.119-0.278-0.264
		l-0.002-0.994"/>
	<path id="_x31_88" fill="none" stroke="#000000" stroke-width="0.2501" d="M87.65,666.019l0.601,0.003v0.438h0.439v-0.447
		l0.613,0.003v0.444h0.439v-0.447h0.615v1.006c0,0.159-0.124,0.261-0.269,0.261H87.93c-0.144,0-0.278-0.119-0.278-0.264
		l-0.002-0.994V666.019z"/>
	<polyline id="_x31_87" fill-rule="evenodd" clip-rule="evenodd" fill="#FFFF00" points="89.971,667.279 90.035,669.019 
		87.972,669.019 88.03,667.281 89.971,667.281 	"/>
	<polygon id="_x31_86" fill="none" stroke="#000000" stroke-width="0.2506" points="89.971,667.279 90.035,669.019 87.975,669.019 
		88.03,667.281 89.971,667.281 89.969,667.281 	"/>
	<path id="_x31_85" fill-rule="evenodd" clip-rule="evenodd" d="M91.451,666.805c-0.014-0.312,0.437-0.318,0.433,0v0.769h-0.433
		V666.805"/>
	<path id="_x31_84" fill-rule="evenodd" clip-rule="evenodd" d="M94.105,667.921c0-0.302,0.42-0.31,0.415,0v0.594h-0.415V667.921"/>
	<path id="_x31_83" fill-rule="evenodd" clip-rule="evenodd" d="M88.785,667.921c0-0.302,0.42-0.31,0.413,0v0.594h-0.413V667.921"/>
	<polyline id="_x31_82" fill-rule="evenodd" clip-rule="evenodd" fill="#FFFF00" points="118.131,667.279 118.196,669.019 
		116.133,669.019 116.192,667.281 118.131,667.281 	"/>
	<path id="_x31_81" fill-rule="evenodd" clip-rule="evenodd" fill="#FFFF00" d="M112.452,673.714
		c0.068-2.759,2.026-3.413,2.041-3.423c0.015-0.009,2.114,0.703,2.109,3.45L112.452,673.714"/>
	<path id="_x31_80" fill-rule="evenodd" clip-rule="evenodd" fill="#FFFF00" d="M110.763,670.341l-0.342,3.174l2.07,0.003
		c0.019-2.625,1.988-3.059,2.036-3.049c0.044-0.003,1.994,0.578,2.046,3.049h2.076l-0.376-3.196L110.763,670.341"/>
	<path id="_x31_79" fill="none" stroke="#000000" stroke-width="0.2497" d="M110.763,670.345l-0.342,3.172l2.07,0.004
		c0.019-2.624,1.988-3.061,2.036-3.051c0.044-0.003,1.994,0.581,2.046,3.051h2.076l-0.376-3.196L110.763,670.345z"/>
	<path id="_x31_78" fill-rule="evenodd" clip-rule="evenodd" fill="#FFFF00" d="M110.281,673.529h8.474
		c0.178,0,0.324,0.178,0.324,0.393c0,0.215-0.146,0.391-0.324,0.391h-8.474c-0.178,0-0.325-0.176-0.325-0.391
		C109.956,673.707,110.103,673.529,110.281,673.529"/>
	<path id="_x31_77" fill="none" stroke="#000000" stroke-width="0.2497" d="M110.281,673.529h8.474c0.178,0,0.324,0.178,0.324,0.393
		c0,0.215-0.146,0.391-0.324,0.391h-8.474c-0.178,0-0.325-0.176-0.325-0.391C109.956,673.707,110.103,673.529,110.281,673.529
		L110.281,673.529z"/>
	<path id="_x31_76" fill-rule="evenodd" clip-rule="evenodd" fill="#FFFF00" d="M113.363,673.514
		c0.009-1.656,1.13-2.124,1.138-2.124c0,0,1.169,0.484,1.179,2.124H113.363"/>
	<path id="_x31_75" fill="none" stroke="#000000" stroke-width="0.2485" d="M113.363,673.514c0.009-1.656,1.13-2.124,1.138-2.124
		c0,0,1.169,0.484,1.179,2.124H113.363"/>
	<path id="_x31_74" fill-rule="evenodd" clip-rule="evenodd" fill="#FFFF00" d="M110.462,669.029h8.122
		c0.171,0,0.313,0.159,0.313,0.354c0,0.193-0.141,0.352-0.313,0.352h-8.122c-0.171,0-0.31-0.159-0.31-0.352
		C110.152,669.188,110.291,669.029,110.462,669.029"/>
	<path id="_x31_73" fill="none" stroke="#000000" stroke-width="0.2495" d="M110.462,669.024h8.122c0.171,0,0.313,0.159,0.313,0.354
		c0,0.193-0.141,0.352-0.313,0.352h-8.122c-0.171,0-0.31-0.159-0.31-0.352C110.152,669.183,110.291,669.024,110.462,669.024
		L110.462,669.024z"/>
	<path id="_x31_72" fill-rule="evenodd" clip-rule="evenodd" fill="#FFFF00" d="M110.633,669.735h7.768
		c0.164,0,0.298,0.159,0.298,0.351c0,0.196-0.134,0.354-0.298,0.354h-7.768c-0.164,0-0.298-0.159-0.298-0.354
		C110.335,669.894,110.47,669.735,110.633,669.735"/>
	<path id="_x31_71" fill="none" stroke="#000000" stroke-width="0.2495" d="M110.633,669.735h7.768c0.164,0,0.298,0.159,0.298,0.351
		c0,0.196-0.134,0.354-0.298,0.354h-7.768c-0.164,0-0.298-0.159-0.298-0.354C110.335,669.894,110.47,669.735,110.633,669.735
		L110.633,669.735z"/>
	<path id="_x31_70" fill-rule="evenodd" clip-rule="evenodd" fill="#FFFF00" d="M113.172,664.439h0.601v0.437h0.437v-0.447
		l0.616,0.003v0.444h0.439v-0.447l0.615,0.003v1.006c0,0.156-0.124,0.259-0.269,0.259h-2.158c-0.146,0-0.281-0.117-0.281-0.264
		V664.439"/>
	<path id="_x31_69" fill="none" stroke="#000000" stroke-width="0.2501" d="M113.143,664.439l0.613,0.003v0.434h0.446v-0.444h0.63
		v0.444h0.449v-0.444h0.627v1.006c0,0.156-0.127,0.259-0.276,0.259h-2.205c-0.149,0-0.286-0.118-0.286-0.264l-0.003-0.994H113.143z"
		/>
	<polyline id="_x31_68" fill-rule="evenodd" clip-rule="evenodd" fill="#FFFF00" points="115.452,665.784 115.591,669.013 
		113.438,669.003 113.582,665.777 115.452,665.784 	"/>
	<polyline id="_x31_67" fill="none" stroke="#000000" stroke-width="0.2495" points="115.452,665.784 115.591,669.01 
		113.438,669.003 113.582,665.777 115.452,665.784 	"/>
	<path id="_x31_66" fill-rule="evenodd" clip-rule="evenodd" fill="#FFFF00" d="M115.811,666.019l0.601,0.003v0.435h0.437v-0.444
		l0.615,0.003v0.442h0.439v-0.444h0.616v1.006c0,0.159-0.125,0.261-0.269,0.261h-2.158c-0.146,0-0.281-0.119-0.281-0.264v-0.994"/>
	<polygon id="_x31_65" fill="none" stroke="#000000" stroke-width="0.2506" points="118.131,667.279 118.196,669.019 
		116.133,669.019 116.192,667.281 118.133,667.281 118.131,667.281 	"/>
	<path id="_x31_64" fill="none" stroke="#000000" stroke-width="0.2501" d="M115.811,666.014l0.601,0.003v0.434h0.439v-0.444
		l0.613,0.003v0.444h0.439v-0.447h0.616v1.006c0,0.156-0.125,0.259-0.269,0.259h-2.158c-0.144,0-0.278-0.117-0.278-0.261
		L115.811,666.014z"/>
	<path id="_x31_63" fill-rule="evenodd" clip-rule="evenodd" fill="#FFFF00" d="M110.506,666.019l0.601,0.003v0.435h0.439v-0.444
		l0.616,0.003v0.442h0.439v-0.444h0.615l-0.003,1.006c0,0.159-0.124,0.261-0.268,0.261h-2.158c-0.144,0-0.279-0.119-0.279-0.264
		v-0.994"/>
	<path id="_x31_62" fill="none" stroke="#000000" stroke-width="0.2501" d="M110.506,666.019l0.601,0.003v0.438h0.439v-0.447
		l0.616,0.003v0.444h0.439v-0.447h0.615l-0.003,1.006c0,0.159-0.124,0.261-0.268,0.261h-2.158c-0.144,0-0.279-0.119-0.279-0.264
		l-0.003-0.994V666.019z"/>
	<polyline id="_x31_61" fill-rule="evenodd" clip-rule="evenodd" fill="#FFFF00" points="112.828,667.279 112.894,669.019 
		110.831,669.019 110.887,667.281 112.828,667.281 	"/>
	<polygon id="_x31_60" fill="none" stroke="#000000" stroke-width="0.2506" points="112.828,667.279 112.894,669.019 
		110.831,669.019 110.89,667.281 112.828,667.281 	"/>
	<path id="_x31_59" fill-rule="evenodd" clip-rule="evenodd" d="M114.307,666.805c-0.012-0.312,0.438-0.318,0.433,0v0.769h-0.433
		V666.805"/>
	<path id="_x31_58" fill-rule="evenodd" clip-rule="evenodd" d="M116.963,667.921c-0.002-0.302,0.418-0.31,0.413,0v0.594h-0.413
		V667.921"/>
	<path id="_x31_57" fill-rule="evenodd" clip-rule="evenodd" d="M111.641,667.921c0-0.302,0.42-0.31,0.415,0v0.594h-0.415V667.921"
		/>
	<polyline id="_x31_56" fill-rule="evenodd" clip-rule="evenodd" fill="#FFFF00" points="140.733,667.279 140.799,669.019 
		138.736,669.019 138.795,667.281 140.733,667.281 	"/>
	<path id="_x31_55" fill-rule="evenodd" clip-rule="evenodd" fill="#FFFF00" d="M135.055,673.714
		c0.068-2.759,2.026-3.413,2.041-3.423c0.015-0.009,2.114,0.703,2.109,3.45L135.055,673.714"/>
	<path id="_x31_54" fill-rule="evenodd" clip-rule="evenodd" fill="#FFFF00" d="M133.365,670.341l-0.342,3.174l2.07,0.003
		c0.019-2.625,1.988-3.059,2.036-3.049c0.044-0.003,1.994,0.578,2.046,3.049h2.076l-0.376-3.196L133.365,670.341"/>
	<path id="_x31_53" fill="none" stroke="#000000" stroke-width="0.2497" d="M133.365,670.345l-0.342,3.172l2.07,0.004
		c0.019-2.624,1.988-3.061,2.036-3.051c0.044-0.003,1.994,0.581,2.046,3.051h2.076l-0.376-3.196L133.365,670.345z"/>
	<path id="_x31_52" fill-rule="evenodd" clip-rule="evenodd" fill="#FFFF00" d="M132.884,673.529h8.474
		c0.178,0,0.324,0.178,0.324,0.393c0,0.215-0.146,0.391-0.324,0.391h-8.474c-0.178,0-0.324-0.176-0.324-0.391
		C132.56,673.707,132.706,673.529,132.884,673.529"/>
	<path id="_x31_51" fill="none" stroke="#000000" stroke-width="0.2497" d="M132.884,673.529h8.474c0.178,0,0.324,0.178,0.324,0.393
		c0,0.215-0.146,0.391-0.324,0.391h-8.474c-0.178,0-0.324-0.176-0.324-0.391C132.56,673.707,132.706,673.529,132.884,673.529
		L132.884,673.529z"/>
	<path id="_x31_50" fill-rule="evenodd" clip-rule="evenodd" fill="#FFFF00" d="M135.965,673.514
		c0.009-1.656,1.13-2.124,1.135-2.124c0.003,0,1.172,0.484,1.182,2.124H135.965"/>
	<path id="_x31_49" fill="none" stroke="#000000" stroke-width="0.2485" d="M135.965,673.514c0.009-1.656,1.13-2.124,1.135-2.124
		c0.003,0,1.172,0.484,1.182,2.124H135.965"/>
	<path id="_x31_48" fill-rule="evenodd" clip-rule="evenodd" fill="#FFFF00" d="M133.065,669.029h8.123
		c0.171,0,0.312,0.159,0.312,0.354c0,0.193-0.141,0.352-0.312,0.352h-8.123c-0.171,0-0.31-0.159-0.31-0.352
		C132.755,669.188,132.894,669.029,133.065,669.029"/>
	<path id="_x31_47" fill="none" stroke="#000000" stroke-width="0.2495" d="M133.065,669.024h8.123c0.171,0,0.312,0.159,0.312,0.354
		c0,0.193-0.141,0.352-0.312,0.352h-8.123c-0.171,0-0.31-0.159-0.31-0.352C132.755,669.183,132.894,669.024,133.065,669.024
		L133.065,669.024z"/>
	<path id="_x31_46" fill-rule="evenodd" clip-rule="evenodd" fill="#FFFF00" d="M133.236,669.735h7.768
		c0.164,0,0.298,0.159,0.298,0.351c0,0.196-0.134,0.354-0.298,0.354h-7.768c-0.164,0-0.298-0.159-0.298-0.354
		C132.938,669.894,133.072,669.735,133.236,669.735"/>
	<path id="_x31_45" fill="none" stroke="#000000" stroke-width="0.2495" d="M133.236,669.735h7.768c0.164,0,0.298,0.159,0.298,0.351
		c0,0.196-0.134,0.354-0.298,0.354h-7.768c-0.164,0-0.298-0.159-0.298-0.354C132.938,669.894,133.072,669.735,133.236,669.735
		L133.236,669.735z"/>
	<path id="_x31_44" fill-rule="evenodd" clip-rule="evenodd" fill="#FFFF00" d="M135.775,664.439h0.601v0.437h0.437v-0.447
		l0.616,0.003v0.444h0.439v-0.447l0.615,0.003v1.006c0,0.156-0.124,0.259-0.269,0.259h-2.158c-0.146,0-0.281-0.117-0.281-0.264
		V664.439"/>
	<path id="_x31_43" fill="none" stroke="#000000" stroke-width="0.2501" d="M135.745,664.439l0.613,0.003v0.434h0.447v-0.444h0.629
		v0.444h0.449v-0.444h0.627v1.006c0,0.156-0.127,0.259-0.276,0.259h-2.205c-0.149,0-0.286-0.118-0.286-0.264l-0.003-0.994H135.745z"
		/>
	<polyline id="_x31_42" fill-rule="evenodd" clip-rule="evenodd" fill="#FFFF00" points="138.055,665.784 138.194,669.013 
		136.041,669.003 136.185,665.777 138.055,665.784 	"/>
	<polyline id="_x31_41" fill="none" stroke="#000000" stroke-width="0.2495" points="138.055,665.784 138.194,669.01 
		136.041,669.003 136.185,665.777 138.055,665.784 	"/>
	<path id="_x31_40" fill-rule="evenodd" clip-rule="evenodd" fill="#FFFF00" d="M138.414,666.019l0.601,0.003v0.435h0.437v-0.444
		l0.615,0.003v0.442h0.439v-0.444h0.616v1.006c0,0.159-0.124,0.261-0.269,0.261h-2.158c-0.146,0-0.281-0.119-0.281-0.264v-0.994"/>
	<polygon id="_x31_39" fill="none" stroke="#000000" stroke-width="0.2506" points="140.733,667.279 140.799,669.019 
		138.736,669.019 138.795,667.281 140.736,667.281 140.733,667.281 	"/>
	<path id="_x31_38" fill="none" stroke="#000000" stroke-width="0.2501" d="M138.414,666.014l0.601,0.003v0.434h0.439v-0.444
		l0.613,0.003v0.444h0.439v-0.447h0.616v1.006c0,0.156-0.124,0.259-0.269,0.259h-2.158c-0.144,0-0.278-0.117-0.281-0.261V666.014z"
		/>
	<path id="_x31_37" fill-rule="evenodd" clip-rule="evenodd" fill="#FFFF00" d="M133.108,666.019l0.601,0.003v0.435h0.44v-0.444
		l0.615,0.003v0.442h0.439v-0.444h0.615l-0.003,1.006c0,0.159-0.124,0.261-0.268,0.261h-2.158c-0.144,0-0.279-0.119-0.279-0.264
		v-0.994"/>
	<path id="_x31_36" fill="none" stroke="#000000" stroke-width="0.2501" d="M133.108,666.019l0.601,0.003v0.438h0.44v-0.447
		l0.615,0.003v0.444h0.439v-0.447h0.615l-0.003,1.006c0,0.159-0.124,0.261-0.268,0.261h-2.158c-0.144,0-0.279-0.119-0.279-0.264
		l-0.003-0.994V666.019z"/>
	<polyline id="_x31_35" fill-rule="evenodd" clip-rule="evenodd" fill="#FFFF00" points="135.43,667.279 135.496,669.019 
		133.433,669.019 133.49,667.281 135.43,667.281 	"/>
	<polygon id="_x31_34" fill="none" stroke="#000000" stroke-width="0.2506" points="135.43,667.279 135.496,669.019 
		133.433,669.019 133.492,667.281 135.43,667.281 	"/>
	<path id="_x31_33" fill-rule="evenodd" clip-rule="evenodd" d="M136.91,666.805c-0.012-0.312,0.438-0.318,0.432,0v0.769h-0.432
		V666.805"/>
	<path id="_x31_32" fill-rule="evenodd" clip-rule="evenodd" d="M139.566,667.921c-0.002-0.302,0.417-0.31,0.413,0v0.594h-0.413
		V667.921"/>
	<path id="_x31_31" fill-rule="evenodd" clip-rule="evenodd" d="M134.244,667.921c0-0.302,0.42-0.31,0.415,0v0.594h-0.415V667.921"
		/>
	<polyline id="_x31_30" fill-rule="evenodd" clip-rule="evenodd" fill="#FFFF00" points="95.274,690.441 95.34,692.179 
		93.277,692.179 93.336,690.441 95.274,690.441 	"/>
	<path id="_x31_29" fill-rule="evenodd" clip-rule="evenodd" fill="#FFFF00" d="M89.595,696.876
		c0.069-2.761,2.027-3.416,2.041-3.426c0.013-0.01,2.114,0.706,2.107,3.45L89.595,696.876"/>
	<path id="_x31_28" fill-rule="evenodd" clip-rule="evenodd" fill="#FFFF00" d="M87.906,693.499l-0.342,3.174l2.071,0.005
		c0.019-2.624,1.988-3.061,2.036-3.052c0.044-0.003,1.994,0.579,2.046,3.052h2.075l-0.376-3.198L87.906,693.499"/>
	<path id="_x31_27" fill="none" stroke="#000000" stroke-width="0.2497" d="M87.906,693.504l-0.342,3.174l2.071,0.003
		c0.019-2.624,1.988-3.059,2.034-3.049c0.046-0.002,1.994,0.579,2.048,3.049h2.075l-0.376-3.196L87.906,693.504z"/>
	<path id="_x31_26" fill-rule="evenodd" clip-rule="evenodd" fill="#FFFF00" d="M87.425,696.691h8.474
		c0.178,0,0.322,0.176,0.322,0.391c0,0.214-0.144,0.391-0.322,0.391h-8.474c-0.178,0-0.325-0.174-0.325-0.391
		C87.1,696.866,87.247,696.691,87.425,696.691"/>
	<path id="_x31_25" fill="none" stroke="#000000" stroke-width="0.2497" d="M87.425,696.691h8.474c0.178,0,0.325,0.176,0.325,0.391
		c0,0.217-0.147,0.391-0.325,0.391h-8.474c-0.178,0-0.325-0.174-0.325-0.391C87.1,696.866,87.247,696.691,87.425,696.691
		L87.425,696.691z"/>
	<path id="_x31_24" fill-rule="evenodd" clip-rule="evenodd" fill="#FFFF00" d="M90.506,696.676
		c0.007-1.657,1.131-2.126,1.136-2.124c0,0,1.172,0.483,1.181,2.124H90.506"/>
	<path id="_x31_23" fill="none" stroke="#000000" stroke-width="0.2485" d="M90.506,696.676c0.007-1.658,1.131-2.126,1.136-2.124
		c0,0,1.172,0.483,1.181,2.124H90.506"/>
	<path id="_x31_22" fill-rule="evenodd" clip-rule="evenodd" fill="#FFFF00" d="M87.606,692.191h8.122
		c0.171,0,0.31,0.156,0.31,0.352c0,0.193-0.139,0.351-0.31,0.351h-8.122c-0.171,0-0.312-0.158-0.312-0.351
		C87.293,692.347,87.435,692.191,87.606,692.191"/>
	<path id="_x31_21" fill="none" stroke="#000000" stroke-width="0.2495" d="M87.606,692.186h8.122c0.171,0,0.31,0.159,0.31,0.351
		c0,0.193-0.139,0.352-0.31,0.352h-8.122c-0.171,0-0.312-0.156-0.312-0.352C87.293,692.345,87.435,692.186,87.606,692.186
		L87.606,692.186z"/>
	<path id="_x31_20" fill-rule="evenodd" clip-rule="evenodd" fill="#FFFF00" d="M87.774,692.894h7.771
		c0.164,0,0.298,0.159,0.298,0.354c0,0.193-0.134,0.351-0.298,0.351h-7.771c-0.163,0-0.295-0.159-0.295-0.351
		C87.479,693.052,87.611,692.894,87.774,692.894"/>
	<path id="_x31_19" fill="none" stroke="#000000" stroke-width="0.2495" d="M87.774,692.894h7.771c0.164,0,0.298,0.159,0.298,0.354
		c0,0.193-0.134,0.351-0.298,0.351h-7.771c-0.163,0-0.295-0.159-0.295-0.351C87.479,693.052,87.611,692.894,87.774,692.894
		L87.774,692.894z"/>
	<path id="_x31_18" fill-rule="evenodd" clip-rule="evenodd" fill="#FFFF00" d="M90.316,687.599h0.598v0.437h0.439v-0.447
		l0.615,0.003v0.444h0.439v-0.444h0.616l-0.003,1.006c0,0.156-0.124,0.259-0.266,0.259h-2.161c-0.144,0-0.278-0.117-0.278-0.264
		V687.599"/>
	<path id="_x31_17" fill="none" stroke="#000000" stroke-width="0.2501" d="M90.286,687.601h0.613v0.434h0.447v-0.444l0.627,0.003
		v0.444h0.449v-0.447h0.63l-0.003,1.006c0,0.159-0.127,0.261-0.274,0.261h-2.204c-0.149,0-0.286-0.119-0.286-0.263l-0.003-0.994
		H90.286z"/>
	<polyline id="_x31_16" fill-rule="evenodd" clip-rule="evenodd" fill="#FFFF00" points="92.596,688.944 92.733,692.171 
		90.581,692.164 90.726,688.939 92.596,688.946 	"/>
	<polyline id="_x31_15" fill="none" stroke="#000000" stroke-width="0.2495" points="92.596,688.944 92.733,692.171 90.581,692.162 
		90.726,688.936 92.596,688.944 	"/>
	<path id="_x31_14" fill-rule="evenodd" clip-rule="evenodd" fill="#FFFF00" d="M92.955,689.181h0.601v0.437h0.437v-0.447
		l0.615,0.003v0.444h0.439v-0.447l0.615,0.003v1.006c0,0.156-0.124,0.259-0.268,0.259h-2.158c-0.147,0-0.281-0.117-0.281-0.264
		V689.181"/>
	<polygon id="_x31_13" fill="none" stroke="#000000" stroke-width="0.2506" points="95.274,690.441 95.34,692.179 93.277,692.179 
		93.336,690.441 	"/>
	<path id="_x31_12" fill="none" stroke="#000000" stroke-width="0.2501" d="M92.955,689.176h0.601v0.437h0.437v-0.446l0.615,0.003
		v0.444h0.439v-0.446l0.615,0.003v1.006c0,0.156-0.124,0.259-0.268,0.259h-2.158c-0.144,0-0.281-0.117-0.281-0.264V689.176z"/>
	<path id="_x31_11" fill-rule="evenodd" clip-rule="evenodd" fill="#FFFF00" d="M87.65,689.181h0.601v0.437h0.439v-0.447
		l0.613,0.003v0.444h0.439v-0.447l0.615,0.003v1.006c0,0.156-0.124,0.259-0.269,0.259H87.93c-0.144,0-0.278-0.117-0.278-0.264
		L87.65,689.181"/>
	<path id="_x31_10" fill="none" stroke="#000000" stroke-width="0.2501" d="M87.65,689.181h0.601v0.437h0.439v-0.447l0.613,0.003
		v0.444h0.439v-0.447l0.615,0.003v1.006c0,0.156-0.124,0.259-0.269,0.259H87.93c-0.144,0-0.278-0.117-0.278-0.264L87.65,689.181z"/>
	<polyline id="_x31_09" fill-rule="evenodd" clip-rule="evenodd" fill="#FFFF00" points="89.971,690.441 90.035,692.179 
		87.972,692.179 88.03,690.441 89.971,690.441 	"/>
	<polygon id="_x31_08" fill="none" stroke="#000000" stroke-width="0.2506" points="89.971,690.441 90.035,692.179 87.975,692.179 
		88.03,690.441 89.971,690.441 89.969,690.441 	"/>
	<path id="_x31_07" fill-rule="evenodd" clip-rule="evenodd" d="M91.451,689.964c-0.014-0.312,0.437-0.318,0.433,0v0.769h-0.433
		V689.964"/>
	<path id="_x31_06" fill-rule="evenodd" clip-rule="evenodd" d="M94.105,691.08c0-0.303,0.42-0.31,0.415,0v0.593h-0.415V691.08"/>
	<path id="_x31_05" fill-rule="evenodd" clip-rule="evenodd" d="M88.785,691.08c0-0.303,0.42-0.31,0.413,0v0.593h-0.413V691.08"/>
	<polyline id="_x31_04" fill-rule="evenodd" clip-rule="evenodd" fill="#FFFF00" points="135.928,717.559 134.747,718.836 
		133.287,717.376 134.559,716.188 135.928,717.559 	"/>
	<path id="_x31_03" fill-rule="evenodd" clip-rule="evenodd" fill="#FFFF00" d="M127.364,718.094
		c1.999-1.904,3.845-0.982,3.863-0.979c0.017,0.005,0.998,1.995-0.947,3.931L127.364,718.094"/>
	<path id="_x31_02" fill-rule="evenodd" clip-rule="evenodd" fill="#FFFF00" d="M128.555,714.513l-2.485,2.002l1.46,1.468
		c1.87-1.841,3.572-0.759,3.598-0.718c0.032,0.029,0.999,1.819-0.712,3.606l1.469,1.468l1.995-2.527L128.555,714.513"/>
	<path id="_x31_01" fill="none" stroke="#000000" stroke-width="0.2497" d="M128.55,714.518l-2.482,2.003l1.459,1.467
		c1.871-1.843,3.569-0.762,3.597-0.721c0.034,0.03,1.001,1.822-0.711,3.607l1.467,1.467l1.997-2.527l-5.325-5.297L128.55,714.518z"
		/>
	<path id="_x31_00" fill-rule="evenodd" clip-rule="evenodd" fill="#FFFF00" d="M125.96,716.429l5.991,5.991
		c0.124,0.127,0.105,0.354-0.049,0.505c-0.151,0.154-0.379,0.174-0.506,0.049l-5.991-5.991c-0.127-0.127-0.105-0.354,0.046-0.505
		C125.606,716.324,125.833,716.302,125.96,716.429"/>
	<path id="_x39_9" fill="none" stroke="#000000" stroke-width="0.2497" d="M125.96,716.429l5.991,5.991
		c0.127,0.127,0.104,0.354-0.049,0.508c-0.151,0.151-0.378,0.171-0.505,0.046l-5.991-5.991c-0.127-0.127-0.105-0.354,0.046-0.505
		C125.606,716.324,125.833,716.302,125.96,716.429L125.96,716.429z"/>
	<path id="_x39_8" fill-rule="evenodd" clip-rule="evenodd" fill="#FFFF00" d="M128.148,718.597
		c1.179-1.164,2.303-0.703,2.307-0.698c0,0,0.486,1.169-0.669,2.337L128.148,718.597"/>
	<path id="_x39_7" fill="none" stroke="#000000" stroke-width="0.2485" d="M128.148,718.597c1.179-1.165,2.302-0.704,2.307-0.699
		c0,0,0.486,1.169-0.669,2.337L128.148,718.597"/>
	<path id="_x39_6" fill-rule="evenodd" clip-rule="evenodd" fill="#FFFF00" d="M129.268,713.375l5.744,5.742
		c0.12,0.122,0.107,0.332-0.029,0.471c-0.136,0.134-0.349,0.149-0.469,0.027l-5.744-5.742c-0.119-0.122-0.107-0.332,0.029-0.469
		C128.936,713.265,129.149,713.253,129.268,713.375"/>
	<path id="_x39_5" fill="none" stroke="#000000" stroke-width="0.2495" d="M129.273,713.37l5.743,5.745
		c0.122,0.119,0.107,0.331-0.029,0.468c-0.137,0.137-0.347,0.152-0.469,0.03l-5.742-5.745c-0.122-0.119-0.109-0.329,0.03-0.469
		C128.939,713.263,129.151,713.251,129.273,713.37L129.273,713.37z"/>
	<path id="_x39_4" fill-rule="evenodd" clip-rule="evenodd" fill="#FFFF00" d="M128.89,713.992l5.496,5.496
		c0.115,0.115,0.098,0.323-0.039,0.459c-0.137,0.136-0.344,0.154-0.459,0.036l-5.496-5.493c-0.115-0.114-0.098-0.322,0.039-0.459
		C128.568,713.895,128.775,713.878,128.89,713.992"/>
	<path id="_x39_3" fill="none" stroke="#000000" stroke-width="0.2495" d="M128.89,713.992l5.493,5.493
		c0.117,0.117,0.1,0.323-0.037,0.462c-0.137,0.137-0.344,0.153-0.459,0.036l-5.496-5.493c-0.115-0.115-0.098-0.322,0.039-0.459
		C128.568,713.895,128.775,713.878,128.89,713.992L128.89,713.992z"/>
	<path id="_x39_2" fill-rule="evenodd" clip-rule="evenodd" fill="#FFFF00" d="M134.432,712.044l0.422,0.425l-0.307,0.307l0.31,0.31
		l0.315-0.315l0.435,0.437l-0.315,0.312l0.31,0.31l0.315-0.314l0.434,0.437l-0.711,0.71c-0.112,0.11-0.271,0.096-0.373-0.007
		l-1.526-1.526c-0.102-0.102-0.114-0.281-0.012-0.383L134.432,712.044"/>
	<path id="_x39_1" fill="none" stroke="#000000" stroke-width="0.2501" d="M134.41,712.025l0.432,0.434l-0.308,0.308l0.318,0.315
		l0.315-0.315l0.442,0.447l-0.312,0.312l0.318,0.318l0.315-0.315l0.444,0.447l-0.713,0.711c-0.112,0.11-0.274,0.093-0.379-0.01
		l-1.557-1.56c-0.105-0.105-0.119-0.286-0.017-0.388l0.703-0.706V712.025z"/>
	<polyline id="_x39_0" fill-rule="evenodd" clip-rule="evenodd" fill="#FFFF00" points="135.091,714.608 132.908,716.988 
		131.392,715.46 133.775,713.283 135.091,714.611 	"/>
	<polyline id="_x38_9" fill="none" stroke="#000000" stroke-width="0.2495" points="135.091,714.608 132.908,716.988 
		131.393,715.46 133.775,713.28 135.091,714.608 	"/>
	<path id="_x38_8" fill-rule="evenodd" clip-rule="evenodd" fill="#FFFF00" d="M135.179,715.028l0.425,0.424l-0.308,0.31
		l0.311,0.307l0.314-0.314l0.433,0.437l-0.312,0.315l0.31,0.31l0.315-0.315l0.434,0.434l-0.712,0.711
		c-0.11,0.113-0.271,0.095-0.374-0.005l-1.526-1.526c-0.103-0.103-0.112-0.281-0.009-0.386L135.179,715.028"/>
	<polygon id="_x38_7" fill="none" stroke="#000000" stroke-width="0.2506" points="135.928,717.559 134.746,718.836 
		133.286,717.379 134.559,716.19 135.931,717.559 	"/>
	<path id="_x38_6" fill="none" stroke="#000000" stroke-width="0.2501" d="M135.184,715.025l0.423,0.425l-0.308,0.308l0.31,0.31
		l0.315-0.315l0.434,0.437l-0.315,0.312l0.31,0.312l0.317-0.315l0.433,0.435l-0.71,0.71c-0.112,0.112-0.271,0.095-0.374-0.008
		l-1.526-1.526c-0.103-0.102-0.115-0.281-0.012-0.384L135.184,715.025z"/>
	<path id="_x38_5" fill-rule="evenodd" clip-rule="evenodd" fill="#FFFF00" d="M131.429,711.278l0.425,0.424l-0.31,0.307l0.31,0.31
		l0.315-0.314l0.434,0.437l-0.315,0.312l0.312,0.312l0.315-0.315l0.434,0.434l-0.712,0.711c-0.113,0.113-0.271,0.095-0.374-0.005
		l-1.526-1.528c-0.103-0.103-0.114-0.279-0.009-0.383L131.429,711.278"/>
	<path id="_x38_4" fill="none" stroke="#000000" stroke-width="0.2501" d="M131.429,711.278l0.423,0.425l-0.307,0.307l0.31,0.312
		l0.314-0.317l0.435,0.436l-0.315,0.315l0.31,0.31l0.317-0.314l0.435,0.435l-0.713,0.71c-0.112,0.113-0.271,0.095-0.374-0.005
		l-1.526-1.526c-0.102-0.103-0.115-0.281-0.012-0.386L131.429,711.278z"/>
	<polyline id="_x38_3" fill-rule="evenodd" clip-rule="evenodd" fill="#FFFF00" points="132.178,713.809 130.997,715.086 
		129.537,713.626 130.806,712.438 132.178,713.809 	"/>
	<polygon id="_x38_2" fill="none" stroke="#000000" stroke-width="0.2506" points="132.178,713.809 130.996,715.086 
		129.536,713.626 130.809,712.438 	"/>
	<path id="_x38_1" fill-rule="evenodd" clip-rule="evenodd" d="M133.56,714.52c0.212-0.232,0.535,0.086,0.307,0.305l-0.544,0.544
		l-0.305-0.307L133.56,714.52"/>
	<path id="_x38_0" fill-rule="evenodd" clip-rule="evenodd" d="M134.651,717.186c0.212-0.215,0.513,0.078,0.291,0.293l-0.42,0.42
		l-0.291-0.292L134.651,717.186"/>
	<path id="_x37_9" fill-rule="evenodd" clip-rule="evenodd" d="M130.89,713.424c0.212-0.215,0.512,0.078,0.291,0.293l-0.42,0.42
		l-0.291-0.293L130.89,713.424"/>
	<polyline id="_x37_8" fill-rule="evenodd" clip-rule="evenodd" fill="#FFFF00" points="140.699,690.441 140.765,692.179 
		138.702,692.181 138.76,690.441 140.699,690.441 	"/>
	<path id="_x37_7" fill-rule="evenodd" clip-rule="evenodd" fill="#FFFF00" d="M135.02,696.876c0.068-2.761,2.026-3.416,2.041-3.426
		c0.012-0.008,2.114,0.706,2.107,3.45L135.02,696.876"/>
	<path id="_x37_6" fill-rule="evenodd" clip-rule="evenodd" fill="#FFFF00" d="M133.331,693.499l-0.342,3.174l2.071,0.005
		c0.019-2.624,1.987-3.061,2.036-3.052c0.044-0.003,1.995,0.579,2.046,3.052h2.075l-0.376-3.196L133.331,693.499"/>
	<path id="_x37_5" fill="none" stroke="#000000" stroke-width="0.2497" d="M133.331,693.504l-0.342,3.174l2.071,0.005
		c0.019-2.624,1.987-3.061,2.033-3.052c0.047-0.002,1.995,0.579,2.049,3.052h2.075l-0.376-3.198L133.331,693.504v0.002V693.504z"/>
	<path id="_x37_4" fill-rule="evenodd" clip-rule="evenodd" fill="#FFFF00" d="M132.85,696.691h8.474
		c0.178,0,0.322,0.176,0.322,0.393c0,0.212-0.144,0.391-0.322,0.391h-8.474c-0.178,0-0.324-0.176-0.324-0.391
		C132.525,696.866,132.671,696.691,132.85,696.691"/>
	<path id="_x37_3" fill="none" stroke="#000000" stroke-width="0.2497" d="M132.85,696.691h8.474c0.178,0,0.325,0.176,0.325,0.393
		c0,0.214-0.147,0.391-0.325,0.391h-8.474c-0.178,0-0.324-0.176-0.324-0.391C132.525,696.866,132.671,696.691,132.85,696.691
		L132.85,696.691z"/>
	<path id="_x37_2" fill-rule="evenodd" clip-rule="evenodd" fill="#FFFF00" d="M135.931,696.676c0.01-1.657,1.131-2.126,1.135-2.124
		c0.003,0,1.172,0.483,1.182,2.124H135.931"/>
	<path id="_x37_1" fill="none" stroke="#000000" stroke-width="0.2485" d="M135.931,696.676c0.01-1.658,1.131-2.126,1.135-2.124
		c0.003,0,1.172,0.483,1.182,2.124H135.931"/>
	<path id="_x37_0" fill-rule="evenodd" clip-rule="evenodd" fill="#FFFF00" d="M133.03,692.191h8.123c0.171,0,0.31,0.159,0.31,0.352
		s-0.139,0.351-0.31,0.351h-8.123c-0.171,0-0.312-0.158-0.312-0.351S132.86,692.191,133.03,692.191"/>
	<path id="_x36_9" fill="none" stroke="#000000" stroke-width="0.2495" d="M133.03,692.186h8.123c0.171,0,0.31,0.159,0.31,0.351
		c0,0.193-0.139,0.352-0.31,0.352h-8.123c-0.171,0-0.312-0.156-0.312-0.352C132.718,692.345,132.86,692.186,133.03,692.186
		L133.03,692.186z"/>
	<path id="_x36_8" fill-rule="evenodd" clip-rule="evenodd" fill="#FFFF00" d="M133.201,692.896h7.769
		c0.163,0,0.297,0.156,0.297,0.352c0,0.193-0.134,0.351-0.297,0.351h-7.769c-0.164,0-0.298-0.159-0.298-0.351
		C132.903,693.052,133.038,692.896,133.201,692.896"/>
	<path id="_x36_7" fill="none" stroke="#000000" stroke-width="0.2495" d="M133.201,692.896h7.769c0.163,0,0.297,0.156,0.297,0.352
		c0,0.193-0.134,0.351-0.297,0.351h-7.769c-0.164,0-0.298-0.159-0.298-0.351C132.903,693.052,133.038,692.896,133.201,692.896
		L133.201,692.896z"/>
	<path id="_x36_6" fill-rule="evenodd" clip-rule="evenodd" fill="#FFFF00" d="M135.74,687.599l0.601,0.003v0.434h0.437v-0.444
		h0.615v0.444h0.439v-0.444h0.615l-0.002,1.006c0,0.156-0.125,0.259-0.266,0.259h-2.158c-0.147,0-0.281-0.117-0.281-0.264V687.599"
		/>
	<path id="_x36_5" fill="none" stroke="#000000" stroke-width="0.2501" d="M135.711,687.601h0.613v0.437h0.447v-0.447l0.63,0.003
		v0.444h0.446v-0.447h0.63v1.006c0,0.159-0.127,0.261-0.276,0.261h-2.204c-0.149,0-0.286-0.119-0.286-0.263l-0.003-0.994H135.711z"
		/>
	<polyline id="_x36_4" fill-rule="evenodd" clip-rule="evenodd" fill="#FFFF00" points="138.021,688.946 138.16,692.171 
		136.007,692.164 136.151,688.939 138.021,688.946 	"/>
	<polyline id="_x36_3" fill="none" stroke="#000000" stroke-width="0.2495" points="138.021,688.946 138.16,692.171 
		136.007,692.164 136.151,688.936 138.021,688.946 	"/>
	<path id="_x36_2" fill-rule="evenodd" clip-rule="evenodd" fill="#FFFF00" d="M138.38,689.181h0.601v0.437h0.437v-0.447
		l0.616,0.003v0.444h0.439v-0.447l0.615,0.003v1.006c0,0.156-0.124,0.259-0.269,0.259h-2.158c-0.146,0-0.281-0.117-0.281-0.264
		V689.181"/>
	<polygon id="_x36_1" fill="none" stroke="#000000" stroke-width="0.2506" points="140.699,690.441 140.765,692.179 
		138.702,692.181 138.76,690.441 	"/>
	<path id="_x36_0" fill="none" stroke="#000000" stroke-width="0.2501" d="M138.38,689.176h0.601v0.437h0.437v-0.446l0.616,0.003
		v0.444h0.439v-0.446l0.615,0.003v1.006c0,0.156-0.124,0.259-0.269,0.259h-2.158c-0.144,0-0.278-0.117-0.281-0.264V689.176z"/>
	<path id="_x35_9" fill-rule="evenodd" clip-rule="evenodd" fill="#FFFF00" d="M133.075,689.181h0.601v0.437h0.439v-0.447
		l0.612,0.003v0.444h0.442v-0.447l0.613,0.003v1.006c0,0.156-0.124,0.259-0.269,0.259h-2.158c-0.144,0-0.278-0.117-0.278-0.264
		L133.075,689.181"/>
	<path id="_x35_8" fill="none" stroke="#000000" stroke-width="0.2501" d="M133.075,689.181l0.601,0.003v0.434h0.439v-0.447
		l0.612,0.003v0.444h0.442v-0.447l0.613,0.003v1.006c0,0.156-0.124,0.259-0.269,0.259h-2.158c-0.144,0-0.278-0.117-0.278-0.264
		L133.075,689.181z"/>
	<polyline id="_x35_7" fill-rule="evenodd" clip-rule="evenodd" fill="#FFFF00" points="135.396,690.441 135.462,692.179 
		133.396,692.181 133.455,690.441 135.396,690.441 	"/>
	<polygon id="_x35_6" fill="none" stroke="#000000" stroke-width="0.2506" points="135.396,690.441 135.462,692.179 
		133.399,692.181 133.455,690.441 	"/>
	<path id="_x35_5" fill-rule="evenodd" clip-rule="evenodd" d="M136.876,689.964c-0.015-0.312,0.437-0.315,0.432,0v0.769h-0.432
		V689.964"/>
	<path id="_x35_4" fill-rule="evenodd" clip-rule="evenodd" d="M139.53,691.08c0-0.303,0.42-0.308,0.415,0v0.593h-0.415V691.08"/>
	<path id="_x35_3" fill-rule="evenodd" clip-rule="evenodd" d="M134.21,691.08c0-0.303,0.42-0.308,0.413,0v0.593h-0.413V691.08"/>
	<polyline id="_x35_2" fill-rule="evenodd" clip-rule="evenodd" fill="#FFFF00" points="98.075,712.421 99.351,713.604 
		97.891,715.064 96.702,713.792 98.075,712.421 	"/>
	<path id="_x35_1" fill-rule="evenodd" clip-rule="evenodd" fill="#FFFF00" d="M98.609,720.99c-1.904-2-0.981-3.848-0.976-3.862
		c0.003-0.017,1.992-0.999,3.931,0.948L98.609,720.99"/>
	<path id="_x35_0" fill-rule="evenodd" clip-rule="evenodd" fill="#FFFF00" d="M95.03,719.796l2.002,2.483l1.467-1.46
		c-1.841-1.87-0.759-3.569-0.717-3.596c0.029-0.034,1.819-1.001,3.604,0.711l1.469-1.467l-2.527-1.994L95.03,719.796"/>
	<path id="_x34_9" fill="none" stroke="#000000" stroke-width="0.2497" d="M95.03,719.801l2.002,2.483l1.467-1.46
		c-1.841-1.87-0.759-3.569-0.717-3.596c0.029-0.034,1.819-1.001,3.604,0.711l1.467-1.467l-2.524-1.997l-5.297,5.324V719.801z"/>
	<path id="_x34_8" fill-rule="evenodd" clip-rule="evenodd" fill="#FFFF00" d="M96.944,722.391l5.991-5.994
		c0.127-0.124,0.354-0.103,0.508,0.049c0.151,0.151,0.173,0.379,0.046,0.506l-5.991,5.991c-0.127,0.127-0.354,0.105-0.506-0.047
		C96.841,722.745,96.82,722.516,96.944,722.391"/>
	<path id="_x34_7" fill="none" stroke="#000000" stroke-width="0.2497" d="M96.944,722.391l5.994-5.994
		c0.124-0.124,0.354-0.103,0.506,0.049c0.151,0.151,0.173,0.379,0.046,0.506l-5.991,5.991c-0.127,0.127-0.354,0.105-0.506-0.047
		C96.841,722.745,96.82,722.516,96.944,722.391L96.944,722.391z"/>
	<path id="_x34_6" fill-rule="evenodd" clip-rule="evenodd" fill="#FFFF00" d="M99.11,720.201c-1.164-1.179-0.703-2.305-0.698-2.307
		c0,0,1.169-0.486,2.336,0.669L99.11,720.201"/>
	<path id="_x34_5" fill="none" stroke="#000000" stroke-width="0.2485" d="M99.11,720.201c-1.164-1.179-0.703-2.305-0.698-2.307
		c0,0,1.169-0.486,2.336,0.667l-1.638,1.638"/>
	<path id="_x34_4" fill-rule="evenodd" clip-rule="evenodd" fill="#FFFF00" d="M93.885,719.081l5.744-5.745
		c0.119-0.119,0.332-0.107,0.469,0.029c0.137,0.137,0.149,0.349,0.029,0.469l-5.744,5.745c-0.12,0.119-0.333,0.107-0.469-0.029
		C93.778,719.412,93.765,719.2,93.885,719.081"/>
	<path id="_x34_3" fill="none" stroke="#000000" stroke-width="0.2495" d="M93.885,719.081l5.744-5.744
		c0.119-0.12,0.332-0.107,0.469,0.029c0.137,0.137,0.149,0.349,0.029,0.469l-5.744,5.745c-0.12,0.119-0.333,0.108-0.469-0.029
		C93.778,719.412,93.765,719.2,93.885,719.081L93.885,719.081z"/>
	<path id="_x34_2" fill-rule="evenodd" clip-rule="evenodd" fill="#FFFF00" d="M94.505,719.454l5.493-5.494
		c0.117-0.114,0.324-0.098,0.461,0.039c0.137,0.137,0.154,0.342,0.037,0.459l-5.493,5.493c-0.115,0.118-0.322,0.101-0.459-0.036
		C94.408,719.776,94.39,719.571,94.505,719.454"/>
	<path id="_x34_1" fill="none" stroke="#000000" stroke-width="0.2495" d="M94.505,719.454l5.493-5.493
		c0.117-0.115,0.323-0.098,0.459,0.039c0.139,0.137,0.156,0.344,0.039,0.459l-5.493,5.493c-0.115,0.118-0.322,0.101-0.459-0.039
		C94.408,719.776,94.39,719.571,94.505,719.454L94.505,719.454z"/>
	<path id="_x34_0" fill-rule="evenodd" clip-rule="evenodd" fill="#FFFF00" d="M92.56,713.919l0.424-0.422l0.307,0.307l0.311-0.31
		l-0.315-0.315l0.437-0.432l0.312,0.312l0.31-0.31l-0.315-0.315l0.437-0.434l0.711,0.713c0.11,0.11,0.095,0.271-0.007,0.371
		l-1.526,1.526c-0.102,0.105-0.281,0.114-0.383,0.012l-0.703-0.701"/>
	<path id="_x33_9" fill="none" stroke="#000000" stroke-width="0.2501" d="M92.54,713.939l0.435-0.432l0.307,0.307l0.318-0.315
		l-0.315-0.315l0.444-0.444l0.315,0.315l0.317-0.318l-0.315-0.314l0.444-0.447l0.711,0.713c0.112,0.112,0.095,0.274-0.01,0.379
		l-1.56,1.56c-0.105,0.105-0.286,0.117-0.388,0.014l-0.703-0.701V713.939z"/>
	<polyline id="_x33_8" fill-rule="evenodd" clip-rule="evenodd" fill="#FFFF00" points="95.125,713.256 97.506,715.438 
		95.977,716.954 93.797,714.574 95.125,713.256 	"/>
	<polyline id="_x33_7" fill="none" stroke="#000000" stroke-width="0.2495" points="95.125,713.26 97.503,715.443 95.977,716.959 
		93.797,714.576 95.125,713.26 	"/>
	<path id="_x33_6" fill-rule="evenodd" clip-rule="evenodd" fill="#FFFF00" d="M95.543,713.17l0.425-0.422l0.31,0.307l0.308-0.31
		l-0.315-0.315l0.437-0.432l0.315,0.312l0.31-0.31l-0.315-0.315l0.435-0.434l0.71,0.713c0.113,0.11,0.096,0.271-0.004,0.371
		l-1.526,1.528c-0.103,0.103-0.281,0.113-0.386,0.01l-0.703-0.701"/>
	<polygon id="_x33_5" fill="none" stroke="#000000" stroke-width="0.2506" points="98.075,712.421 99.351,713.604 97.893,715.064 
		96.705,713.792 	"/>
	<path id="_x33_4" fill="none" stroke="#000000" stroke-width="0.2501" d="M95.54,713.165l0.425-0.422l0.307,0.307l0.31-0.31
		l-0.315-0.315l0.437-0.432l0.312,0.312l0.312-0.31l-0.315-0.315l0.434-0.434l0.711,0.712c0.11,0.11,0.095,0.271-0.007,0.371
		l-1.526,1.526c-0.103,0.102-0.281,0.114-0.383,0.012l-0.703-0.701V713.165z"/>
	<path id="_x33_3" fill-rule="evenodd" clip-rule="evenodd" fill="#FFFF00" d="M91.795,716.92l0.425-0.425l0.307,0.31l0.31-0.31
		l-0.315-0.315l0.437-0.434l0.313,0.315l0.312-0.312l-0.315-0.315l0.435-0.434l0.71,0.712c0.113,0.11,0.096,0.271-0.005,0.374
		l-1.528,1.526c-0.103,0.103-0.281,0.115-0.383,0.01L91.795,716.92"/>
	<path id="_x33_2" fill="none" stroke="#000000" stroke-width="0.2501" d="M91.795,716.92l0.425-0.422l0.307,0.307l0.31-0.31
		l-0.315-0.315l0.437-0.434l0.315,0.315l0.31-0.31l-0.315-0.318l0.435-0.434l0.71,0.712c0.113,0.11,0.096,0.271-0.005,0.374
		l-1.528,1.526c-0.103,0.103-0.281,0.115-0.383,0.013L91.795,716.92z"/>
	<polyline id="_x33_1" fill-rule="evenodd" clip-rule="evenodd" fill="#FFFF00" points="94.325,716.171 95.601,717.352 
		94.144,718.812 92.955,717.542 94.325,716.171 	"/>
	<polygon id="_x33_0" fill="none" stroke="#000000" stroke-width="0.2506" points="94.325,716.171 95.601,717.352 94.144,718.812 
		92.955,717.54 	"/>
	<path id="_x32_9" fill-rule="evenodd" clip-rule="evenodd" d="M95.035,714.791c-0.232-0.213,0.086-0.535,0.308-0.308l0.542,0.545
		l-0.305,0.305L95.035,714.791"/>
	<path id="_x32_8" fill-rule="evenodd" clip-rule="evenodd" d="M97.701,713.702c-0.215-0.212,0.078-0.515,0.293-0.292l0.42,0.42
		l-0.293,0.293L97.701,713.702"/>
	<path id="_x32_7" fill-rule="evenodd" clip-rule="evenodd" d="M93.941,717.464c-0.217-0.212,0.076-0.513,0.291-0.291l0.42,0.42
		l-0.291,0.291L93.941,717.464"/>
	<path id="_x32_6" fill="#FFFFFF" d="M116.656,710.601c-0.41,0-0.742,0.335-0.742,0.742c0,0.41,0.332,0.744,0.742,0.744
		c0.41,0,0.742-0.334,0.742-0.744C117.398,710.936,117.064,710.601,116.656,710.601"/>
	<path id="_x32_5" fill="#FFFFFF" d="M112.537,710.606c-0.41,0-0.742,0.334-0.742,0.742c0,0.41,0.332,0.744,0.742,0.744
		c0.411,0,0.743-0.334,0.743-0.744C113.28,710.941,112.948,710.606,112.537,710.606"/>
	<path id="_x32_4" fill="#FFFFFF" d="M114.578,708.517c-0.41,0-0.744,0.334-0.744,0.744c0,0.408,0.334,0.742,0.744,0.742
		c0.407,0,0.742-0.334,0.742-0.742C115.321,708.851,114.986,708.517,114.578,708.517"/>
	<path id="_x32_3" fill="#FFFFFF" d="M116.661,706.519c-0.41,0-0.744,0.334-0.744,0.745c0,0.407,0.334,0.742,0.744,0.742
		c0.408,0,0.743-0.334,0.743-0.742C117.403,706.854,117.068,706.519,116.661,706.519"/>
	<path id="_x32_2" fill="#FFFFFF" d="M127.066,697.731c-0.41,0-0.744,0.332-0.744,0.742c0,0.408,0.334,0.742,0.744,0.742
		c0.408,0,0.743-0.332,0.743-0.742C127.808,698.062,127.474,697.731,127.066,697.731"/>
	<path id="_x32_1" fill="#FFFFFF" d="M123.008,697.736c-0.407,0-0.742,0.334-0.742,0.744c0,0.408,0.334,0.742,0.742,0.742
		c0.411,0,0.742-0.334,0.742-0.742C123.751,698.07,123.419,697.736,123.008,697.736"/>
	<path id="_x32_0" fill="#FFFFFF" d="M124.986,695.646c-0.407,0-0.742,0.334-0.742,0.742c0,0.411,0.334,0.745,0.742,0.745
		c0.411,0,0.745-0.334,0.745-0.745C125.731,695.98,125.396,695.646,124.986,695.646"/>
	<path id="_x31_9" fill="#FFFFFF" d="M127.068,693.648c-0.408,0-0.742,0.335-0.742,0.742c0,0.41,0.334,0.742,0.742,0.742
		c0.411,0,0.745-0.332,0.745-0.742C127.813,693.983,127.479,693.648,127.068,693.648"/>
	<path id="_x31_8" fill="#FFFFFF" d="M123.001,693.646c-0.411,0-0.745,0.332-0.745,0.742c0,0.407,0.334,0.742,0.745,0.742
		c0.407,0,0.742-0.335,0.742-0.742C123.743,693.978,123.409,693.646,123.001,693.646"/>
	<path id="_x31_7" fill="#FFFFFF" d="M116.693,697.711c-0.41,0-0.745,0.332-0.745,0.742c0,0.407,0.335,0.742,0.745,0.742
		c0.407,0,0.742-0.334,0.742-0.742C117.435,698.043,117.1,697.711,116.693,697.711"/>
	<path id="_x31_6" fill="#FFFFFF" d="M112.537,697.716c-0.41,0-0.742,0.332-0.742,0.742c0,0.407,0.332,0.742,0.742,0.742
		c0.411,0,0.743-0.332,0.743-0.742C113.28,698.048,112.948,697.716,112.537,697.716"/>
	<path id="_x31_5" fill="#FFFFFF" d="M114.613,695.626c-0.408,0-0.742,0.332-0.742,0.742c0,0.408,0.334,0.742,0.742,0.742
		c0.41,0,0.742-0.335,0.742-0.742C115.355,695.958,115.023,695.626,114.613,695.626"/>
	<path id="_x31_4" fill="#FFFFFF" d="M116.698,693.629c-0.411,0-0.745,0.332-0.745,0.742c0,0.408,0.334,0.742,0.745,0.742
		c0.408,0,0.742-0.332,0.742-0.742C117.44,693.961,117.105,693.629,116.698,693.629"/>
	<path id="_x31_3" fill="#FFFFFF" d="M112.537,693.624c-0.41,0-0.742,0.335-0.742,0.742c0,0.41,0.332,0.744,0.742,0.744
		c0.411,0,0.743-0.334,0.743-0.744C113.28,693.959,112.948,693.624,112.537,693.624"/>
	<path id="_x31_2" fill="#FFFFFF" d="M106.292,697.736c-0.408,0-0.742,0.334-0.742,0.742c0,0.41,0.334,0.744,0.742,0.744
		c0.41,0,0.742-0.334,0.742-0.744C107.035,698.07,106.702,697.736,106.292,697.736"/>
	<path id="_x31_1" fill="#FFFFFF" d="M102.237,697.74c-0.41,0-0.744,0.335-0.744,0.745c0,0.408,0.334,0.742,0.744,0.742
		c0.408,0,0.742-0.334,0.742-0.742C102.979,698.075,102.645,697.74,102.237,697.74"/>
	<path id="_x31_0" fill="#FFFFFF" d="M104.215,695.651c-0.41,0-0.744,0.334-0.744,0.744c0,0.407,0.334,0.742,0.744,0.742
		c0.408,0,0.742-0.335,0.742-0.742C104.956,695.985,104.622,695.651,104.215,695.651"/>
	<path id="_x39_" fill="#FFFFFF" d="M106.297,693.653c-0.408,0-0.742,0.334-0.742,0.745c0,0.407,0.334,0.742,0.742,0.742
		c0.41,0,0.742-0.334,0.742-0.742C107.04,693.987,106.707,693.653,106.297,693.653"/>
	<path id="_x38_" fill="#FFFFFF" d="M112.537,706.517c-0.41,0-0.742,0.334-0.742,0.742c0,0.408,0.332,0.742,0.742,0.742
		c0.411,0,0.743-0.332,0.743-0.742C113.28,706.851,112.948,706.517,112.537,706.517"/>
	<path id="_x37_" fill="#FFFF00" d="M102.225,693.651c-0.408,0-0.742,0.332-0.742,0.742c0,0.407,0.334,0.742,0.742,0.742
		c0.411,0,0.743-0.334,0.743-0.742C102.967,693.983,102.635,693.651,102.225,693.651"/>
	<path id="_x36_" fill="#FFFFFF" d="M112.537,680.616c-0.41,0-0.742,0.334-0.742,0.742c0,0.411,0.332,0.745,0.742,0.745
		c0.411,0,0.743-0.334,0.743-0.745C113.28,680.951,112.948,680.616,112.537,680.616"/>
	<path id="_x35_" fill="#FFFFFF" d="M116.607,680.616c-0.41,0-0.744,0.334-0.744,0.742c0,0.411,0.334,0.745,0.744,0.745
		c0.407,0,0.742-0.334,0.742-0.745C117.35,680.951,117.015,680.616,116.607,680.616"/>
	<path id="_x34_" fill="#FFFFFF" d="M114.522,682.618c-0.407,0-0.742,0.332-0.742,0.742c0,0.408,0.334,0.742,0.742,0.742
		c0.41,0,0.745-0.332,0.745-0.742C115.267,682.95,114.932,682.618,114.522,682.618"/>
	<path id="_x33_" fill="#FFFFFF" d="M116.602,684.703c-0.408,0-0.742,0.332-0.742,0.742c0,0.408,0.334,0.742,0.742,0.742
		c0.411,0,0.745-0.334,0.745-0.742C117.347,685.035,117.013,684.703,116.602,684.703"/>
	<path id="_x32_" fill="#FFFFFF" d="M112.537,684.708c-0.41,0-0.742,0.332-0.742,0.742c0,0.408,0.332,0.742,0.742,0.742
		c0.411,0,0.743-0.332,0.743-0.742C113.28,685.04,112.948,684.708,112.537,684.708"/>
	<path id="_x31_" fill="#FFFFFF" d="M102.227,693.651c-0.408,0-0.742,0.335-0.742,0.742c0,0.407,0.334,0.742,0.742,0.742
		c0.411,0,0.745-0.332,0.745-0.742C102.972,693.986,102.638,693.651,102.227,693.651"/>
</g>
</svg>
